<svg aria-hidden="true" style="position: absolute; width: 0; height: 0; overflow: hidden;" version="1.1" xmlns="http://www.w3.org/2000/svg" xmlns:xlink="http://www.w3.org/1999/xlink">
<defs>
<symbol id="icon-quotes" viewBox="0 0 32 32">
<path fill="#e1e1e1" style="fill: var(--color1, #e1e1e1)" d="M23.714 4.148c1.428 0 2.777 0.385 4.047 1.156s2.302 1.879 3.095 3.324c0.762 1.445 1.143 3.148 1.143 5.107s-0.476 3.87-1.428 5.733c-0.318 0.674-0.889 1.541-1.715 2.601-0.857 1.060-1.65 1.975-2.38 2.746l-3 3.035-2.143-3.565c1.528-0.964 2.832-2.115 3.931-3.442l0.022-0.027c1.143-1.349 1.714-2.585 1.714-3.71 0-0.578-0.127-1.044-0.38-1.397-1.111 0.803-2.35 1.205-3.714 1.205-0.984 0-1.921-0.305-2.809-0.916-0.917-0.579-1.657-1.359-2.174-2.28l-0.016-0.032c-0.571-0.932-0.857-1.895-0.857-2.891 0-1.125 0.333-2.2 1-3.228 0.641-1.029 1.489-1.871 2.491-2.486l0.033-0.019c1.015-0.61 2.062-0.916 3.142-0.916zM6.619 4.148c1.428 0 2.777 0.385 4.047 1.156s2.302 1.879 3.095 3.324c0.762 1.445 1.143 3.148 1.143 5.107 0 1.381-0.175 2.617-0.524 3.71-0.35 1.124-0.952 2.296-1.81 3.517-0.825 1.156-1.603 2.12-2.333 2.891-0.73 0.803-2 2.136-3.81 3.999l-2.143-3.565c1.528-0.964 2.832-2.115 3.931-3.442l0.022-0.027c1.143-1.349 1.714-2.585 1.714-3.71 0-0.578-0.127-1.044-0.381-1.397-1.111 0.803-2.35 1.205-3.714 1.205-0.984 0-1.921-0.305-2.809-0.916-0.917-0.579-1.657-1.359-2.174-2.28l-0.016-0.032c-0.571-0.932-0.857-1.895-0.857-2.891 0-1.125 0.318-2.2 0.952-3.228 0.641-1.029 1.489-1.871 2.491-2.486l0.033-0.019c1.015-0.61 2.062-0.916 3.143-0.916z"></path>
</symbol>
<symbol id="icon-circle_light-pink" viewBox="0 0 32 32">
<path fill="#fea5bb" style="fill: var(--color2, #fea5bb)" d="M16 32c8.837 0 16-7.163 16-16s-7.163-16-16-16c-8.837 0-16 7.163-16 16s7.163 16 16 16z"></path>
</symbol>
<symbol id="icon-circle_pink" viewBox="0 0 32 32">
<path fill="#d41443" style="fill: var(--color3, #d41443)" d="M16 32c8.837 0 16-7.163 16-16s-7.163-16-16-16c-8.837 0-16 7.163-16 16s7.163 16 16 16z"></path>
</symbol>
<symbol id="icon-dots_grey" viewBox="0 0 32 32">
<path fill="#d9d9d9" style="fill: var(--color4, #d9d9d9)" d="M32 16c0 8.837-7.163 16-16 16s-16-7.163-16-16c0-8.837 7.163-16 16-16s16 7.163 16 16z"></path>
</symbol>
<symbol id="icon-dots_pink_x3" viewBox="0 0 32 32">
<path fill="#c7133e" style="fill: var(--color5, #c7133e)" d="M32 16c0 8.837-7.163 16-16 16s-16-7.163-16-16c0-8.837 7.163-16 16-16s16 7.163 16 16z"></path>
</symbol>
<symbol id="icon-dots_white" viewBox="0 0 32 32">
<path fill="#fff" style="fill: var(--color6, #fff)" d="M32 16c0 8.837-7.163 16-16 16s-16-7.163-16-16c0-8.837 7.163-16 16-16s16 7.163 16 16z"></path>
</symbol>
<symbol id="icon-facebook" viewBox="0 0 32 32">
<path fill="#fff" style="fill: var(--color6, #fff)" d="M22.143 15.972h-4.034v14.865h-6.112v-14.865h-2.907v-5.224h2.907v-3.381c0-2.418 1.142-6.203 6.166-6.203l4.527 0.019v5.071h-3.285c-0.539 0-1.296 0.271-1.296 1.424v3.075h4.567l-0.534 5.219z"></path>
</symbol>
<symbol id="icon-github" viewBox="0 0 32 32">
<path fill="#fff" style="fill: var(--color6, #fff)" d="M16 0c-8.788 0-16 7.212-16 16 0 7.499 5.262 14.312 12.25 16v-5.293c-0.692 0.152-1.33 0.156-2.034-0.052-0.946-0.279-1.714-0.909-2.284-1.869-0.364-0.613-1.008-1.278-1.68-1.23l-0.165-1.868c1.453-0.124 2.711 0.886 3.457 2.14 0.332 0.558 0.713 0.884 1.203 1.029 0.473 0.14 0.982 0.072 1.574-0.137 0.149-1.186 0.692-1.63 1.102-2.255v-0.001c-4.167-0.622-5.828-2.832-6.488-4.578-0.874-2.317-0.405-5.212 1.14-7.041 0.030-0.036 0.084-0.129 0.063-0.194-0.708-2.139 0.155-3.909 0.187-4.097 0.817 0.242 0.95-0.243 3.551 1.337l0.449 0.27c0.188 0.112 0.129 0.048 0.317 0.034 1.086-0.295 2.23-0.458 3.358-0.472 1.136 0.015 2.273 0.178 3.404 0.484l0.145 0.015c-0.013-0.002 0.040-0.009 0.127-0.062 3.248-1.968 3.132-1.324 4.003-1.608 0.032 0.188 0.883 1.987 0.182 4.099-0.095 0.291 2.816 2.956 1.203 7.235-0.659 1.746-2.32 3.957-6.487 4.578v0.001c0.534 0.814 1.176 1.247 1.173 2.927v6.608c6.988-1.688 12.25-8.501 12.25-16 0-8.788-7.212-16-16-16v0z"></path>
</symbol>
<symbol id="icon-home" viewBox="0 0 32 32">
<path fill="#d31342" style="fill: var(--color7, #d31342)" d="M31.618 15.643c0.553-0.608 0.5-1.541-0.119-2.082l-13.636-11.931c-0.619-0.541-1.611-0.53-2.217 0.026l-13.682 12.542c-0.606 0.556-0.636 1.487-0.066 2.079l0.343 0.357c0.569 0.592 1.489 0.663 2.053 0.157l1.023-0.916v13.406c0 0.823 0.666 1.488 1.488 1.488h5.333c0.822 0 1.488-0.666 1.488-1.488v-9.379h6.803v9.379c-0.012 0.822 0.576 1.488 1.398 1.488h5.652c0.822 0 1.488-0.666 1.488-1.488v-13.217c0 0 0.282 0.247 0.631 0.554s1.078 0.061 1.631-0.548l0.388-0.426z"></path>
</symbol>
<symbol id="icon-icecream" viewBox="0 0 32 32">
<path fill="#d41443" style="fill: var(--color3, #d41443)" d="M31.82 16c0 8.777-7.083 15.892-15.82 15.892s-15.82-7.115-15.82-15.892c0-8.777 7.083-15.892 15.82-15.892s15.82 7.115 15.82 15.892z"></path>
<path fill="none" stroke="#fff" style="stroke: var(--color6, #fff)" stroke-linejoin="miter" stroke-linecap="butt" stroke-miterlimit="4" stroke-width="1.92" d="M11.871 28.901v3.063M19.574 29.139v3.062M19.932 16.221v3.596M24.68 17.22v5.896c0 3.257-3.886 5.897-8.68 5.897s-8.68-2.64-8.68-5.897v-5.896h17.359z"></path>
<path fill="none" stroke="#fff" style="stroke: var(--color6, #fff)" stroke-linejoin="miter" stroke-linecap="butt" stroke-miterlimit="4" stroke-width="1.92" d="M7.333 17.85v-7.766c0-4.289 3.88-7.766 8.667-7.766s8.667 3.477 8.667 7.766v7.766h-17.334z"></path>
<path fill="none" stroke="#fff" style="stroke: var(--color6, #fff)" stroke-linejoin="miter" stroke-linecap="butt" stroke-miterlimit="4" stroke-width="1.92" d="M23.389 6.461c0 1.032-3.308 1.869-7.389 1.869s-7.389-0.837-7.389-1.869c0-1.032 3.308-1.869 7.389-1.869s7.389 0.837 7.389 1.869z"></path>
<path fill="none" stroke="#fff" style="stroke: var(--color6, #fff)" stroke-linejoin="miter" stroke-linecap="butt" stroke-miterlimit="4" stroke-width="1.92" d="M7.709 13.25h16.582c2.172 0 3.933 0.966 3.933 2.157s-1.761 2.157-3.933 2.157h-16.582c-2.172 0-3.933-0.965-3.933-2.157s1.761-2.157 3.933-2.157z"></path>
<path fill="none" stroke="#fff" style="stroke: var(--color6, #fff)" stroke-linejoin="miter" stroke-linecap="butt" stroke-miterlimit="4" stroke-width="1.92" d="M18.991 15.353c1.414 0 2.56 1.146 2.56 2.56v3.006c0 1.414-1.146 2.56-2.56 2.56s-2.56-1.146-2.56-2.56v-3.006c0-1.414 1.146-2.56 2.56-2.56z"></path>
<path fill="#d41443" style="fill: var(--color3, #d41443)" d="M17.438 14.202h3.164v6.040h-3.164z"></path>
<path fill="#d41443" style="fill: var(--color3, #d41443)" d="M14.706 14.202h9.636v2.157h-9.636z"></path>
<path fill="#d41443" style="fill: var(--color3, #d41443)" d="M20.602 5.285c0 1.032-2.157 1.869-4.818 1.869s-4.818-0.837-4.818-1.869c0-1.032 2.157-1.869 4.818-1.869s4.818 0.837 4.818 1.869z"></path>
<path fill="#d41443" style="fill: var(--color3, #d41443)" d="M12.102 4.606c0.23 0.257-0.036 0.871-0.595 1.372s-1.198 0.697-1.429 0.44c-0.23-0.257 0.036-0.871 0.595-1.372s1.198-0.697 1.429-0.44z"></path>
<path fill="#d41443" style="fill: var(--color3, #d41443)" d="M21.971 6.444c-0.207 0.295-1.115 0.013-2.027-0.628s-1.483-1.401-1.276-1.695c0.207-0.295 1.115-0.013 2.027 0.628s1.483 1.401 1.276 1.695z"></path>
<path fill="#d41443" style="fill: var(--color3, #d41443)" d="M6.518 14.166h18.607v2.371h-18.607z"></path>
<path fill="#d41443" style="fill: var(--color3, #d41443)" d="M8.889 15.348c0 0.655-0.876 1.185-1.956 1.185s-1.956-0.531-1.956-1.185c0-0.655 0.876-1.185 1.956-1.185s1.956 0.531 1.956 1.185z"></path>
<path fill="#d41443" style="fill: var(--color3, #d41443)" d="M27.022 15.348c0 0.655-0.822 1.185-1.837 1.185s-1.837-0.531-1.837-1.185c0-0.655 0.822-1.185 1.837-1.185s1.837 0.531 1.837 1.185z"></path>
</symbol>
<symbol id="icon-telegram" viewBox="0 0 32 32">
<path fill="#fff" style="fill: var(--color6, #fff)" d="M12.613 19.671l-0.491 6.444c0.702 0 1.006-0.282 1.371-0.62l3.293-2.937 6.822 4.663c1.251 0.651 2.133 0.308 2.47-1.074l4.478-19.585 0.001-0.001c0.397-1.726-0.669-2.401-1.888-1.978l-26.323 9.406c-1.796 0.651-1.769 1.585-0.305 2.009l6.73 1.954 15.632-9.129c0.736-0.455 1.404-0.203 0.854 0.252l-12.645 10.597z"></path>
</symbol>
<symbol id="icon-Vector" viewBox="0 0 32 32">
<path fill="none" stroke="#d41443" style="stroke: var(--color3, #d41443)" stroke-linejoin="round" stroke-linecap="round" stroke-miterlimit="4" stroke-width="6.4" d="M9.6 3.2l12.8 12.8-12.8 12.8"></path>
</symbol>
<symbol id="icon-arrow-right2" viewBox="0 0 32 32">
<path d="M19.414 27.414l10-10c0.781-0.781 0.781-2.047 0-2.828l-10-10c-0.781-0.781-2.047-0.781-2.828 0s-0.781 2.047 0 2.828l6.586 6.586h-19.172c-1.105 0-2 0.895-2 2s0.895 2 2 2h19.172l-6.586 6.586c-0.39 0.39-0.586 0.902-0.586 1.414s0.195 1.024 0.586 1.414c0.781 0.781 2.047 0.781 2.828 0z"></path>
</symbol>
</defs>
</svg>
